<?xml version="1.0" encoding="UTF-8"?>
<svg width="88px" height="21px" viewBox="0 0 88 21" version="1.1" xmlns="http://www.w3.org/2000/svg" xmlns:xlink="http://www.w3.org/1999/xlink">
    <!-- Generator: Sketch 59.1 (86144) - https://sketch.com -->
    <title>Group 12</title>
    <desc>Created with Sketch.</desc>
    <defs>
        <polygon id="path-1" points="0.0249610063 0.0621047877 17.3520595 0.0621047877 17.3520595 20.3702213 0.0249610063 20.3702213"></polygon>
    </defs>
    <g id="Page-2" stroke="none" stroke-width="1" fill="none" fill-rule="evenodd">
        <g id="Artboard" transform="translate(-40.000000, -30.000000)">
            <g id="Group-23">
                <g id="Group-12" transform="translate(40.000000, 30.000000)">
                    <polygon id="Fill-1" fill="#FFFFFF" points="-1.77635684e-15 19.5555556 4.88888889 19.5555556 4.88888889 4.88888889 -1.77635684e-15 4.88888889"></polygon>
                    <g id="Group-11" transform="translate(7.333333, 0.000000)">
                        <path d="M0.0302373166,5.40942638 L5.32126038,5.40942638 L5.32126038,7.15879404 C6.57692075,5.66927281 8.29730231,5.15057362 9.75183899,5.15057362 C10.8096377,5.15057362 11.8019899,5.37812556 12.5959732,5.79845077 C13.6867488,6.34894761 14.2818558,7.15879404 14.6461241,7.87126016 C15.2407237,6.83435863 16.0007153,6.21976965 16.6622834,5.86303975 C17.7210969,5.28024842 18.746426,5.15057362 19.7377635,5.15057362 C20.8285392,5.15057362 22.6148746,5.31303975 23.8380654,6.47812556 C25.1606943,7.74158537 25.2266482,9.45766486 25.2266482,10.4617751 L25.2266482,19.8848103 L19.9356252,19.8848103 L19.9356252,12.7278546 C19.9356252,11.2060388 19.7712478,10.170131 19.1756335,9.61913731 C18.8778264,9.36028455 18.4810885,9.13372629 17.7870507,9.13372629 C17.1914365,9.13372629 16.6962751,9.29569557 16.2330759,9.71651762 C15.3396545,10.5581617 15.2737006,11.7560388 15.2737006,12.4694986 L15.2737006,19.8848103 L9.98318491,19.8848103 L9.98318491,12.7278546 C9.98318491,11.3357136 9.88425409,10.2352168 9.28863983,9.61913731 C8.82645535,9.13372629 8.23084109,9.03733966 7.70168805,9.03733966 C7.14006541,9.03733966 6.67686625,9.13372629 6.24664403,9.55454833 C5.32126038,10.4294806 5.32126038,11.8216215 5.32126038,12.7278546 L5.32126038,19.8848103 L0.0302373166,19.8848103 L0.0302373166,5.40942638 Z" id="Fill-2" fill="#FFFFFF"></path>
                        <g id="Group-6" transform="translate(27.396226, 0.000000)">
                            <mask id="mask-2" fill="white">
                                <use xlink:href="#path-1"></use>
                            </mask>
                            <g id="Clip-5"></g>
                            <path d="M10.9037996,14.9949277 C11.59733,14.3152529 11.9291287,13.4726152 11.9291287,12.7283514 C11.9291287,11.7560388 11.4989065,10.8498058 10.9037996,10.2665176 C10.4400931,9.81389792 9.68060881,9.32799006 8.55584151,9.32799006 C7.56399665,9.32799006 6.73703648,9.68422313 6.14142222,10.2998058 C5.61226918,10.8498058 5.1500847,11.8216215 5.1500847,12.6309711 C5.1500847,13.5054065 5.57979958,14.4762285 6.27383732,15.092308 C6.83647463,15.5777191 7.69641174,15.9667435 8.55584151,15.9667435 C9.31634046,15.9667435 10.1757702,15.7073939 10.9037996,14.9949277 L10.9037996,14.9949277 Z M5.32917484,0.0619557362 L5.31547673,6.80256098 C6.27383732,5.79845077 7.69641174,4.92401536 9.71257107,4.92401536 C11.5313761,4.92401536 13.4831036,5.50680668 14.9376403,6.86764679 C16.2932461,8.13011292 17.3520595,10.1378365 17.3520595,12.5991734 C17.3520595,14.8985411 16.4586382,16.9375655 14.9706172,18.3624977 C13.581527,19.6905465 11.8951371,20.3702213 9.77903229,20.3702213 C8.75421048,20.3702213 6.80299036,20.1764544 5.31547673,18.2979088 L5.31547673,19.8848103 L0.0249610063,19.8848103 L0.0376444444,0.0619557362 L5.32917484,0.0619557362 Z" id="Fill-4" fill="#FFFFFF" mask="url(#mask-2)"></path>
                        </g>
                        <path d="M51.850504,5.40942638 L51.850504,13.5054065 C51.850504,14.0886947 51.9489275,14.9949277 52.6439799,15.6105104 C53.1721182,16.0631301 53.867678,16.1610072 54.4952545,16.1610072 C55.1568226,16.1610072 55.7854138,16.0964182 56.3800134,15.5459214 C57.0410742,14.8985411 57.1410197,14.1532836 57.1410197,13.5054065 L57.1410197,5.40942638 L62.4315354,5.40942638 L62.4315354,14.4449277 C62.4315354,15.6750994 62.3320973,17.0026513 61.0094683,18.3307001 C59.1911706,20.1764544 56.6448436,20.3702213 54.6286843,20.3702213 C52.4121266,20.3702213 49.7009149,20.1431662 47.9485711,18.2979088 C46.8238038,17.1328229 46.5594809,15.8375655 46.5594809,14.4449277 L46.5594809,5.40942638 L51.850504,5.40942638 Z" id="Fill-7" fill="#FFFFFF"></path>
                        <path d="M75.586899,10.62285 C75.4549912,10.07285 75.1236998,9.45776423 74.7279765,9.06873984 C74.0329241,8.38956188 73.0735488,8.29218157 72.5454105,8.29218157 C71.6524964,8.29218157 70.957444,8.51873984 70.3958214,9.06873984 C70.0320604,9.45776423 69.7012763,9.97546974 69.6018382,10.62285 L75.586899,10.62285 Z M80.4471925,13.6028862 L69.4364461,13.6028862 C69.4364461,14.3799413 69.7342532,15.4153523 70.3628444,16.0314318 C70.6931212,16.3548735 71.3546893,16.7438979 72.5454105,16.7438979 C72.6778256,16.7438979 73.6032092,16.7111066 74.2647774,16.3548735 C74.5955614,16.1606098 74.9593224,15.8376649 75.190161,15.3835547 L80.2493308,15.3835547 C80.0174776,16.1938979 79.5552931,17.3266893 78.4635027,18.3625971 C77.3722197,19.3994986 75.6533602,20.3703207 72.4459723,20.3703207 C70.4952595,20.3703207 68.1473015,19.9494986 66.3284964,18.1688302 C65.3696285,17.2293089 64.1464377,15.4486405 64.1464377,12.6956594 C64.1464377,10.266617 65.0718214,8.3249729 66.360966,7.09380759 C67.5856788,5.92822493 69.5029073,4.9887037 72.4119807,4.9887037 C74.1323623,4.9887037 76.3468906,5.34493677 78.0997417,6.96462963 C80.1833769,8.90677055 80.4471925,11.4331933 80.4471925,13.0518925 L80.4471925,13.6028862 Z" id="Fill-9" fill="#FFFFFF"></path>
                    </g>
                </g>
            </g>
        </g>
    </g>
</svg>